# xmcd
# 
# Track frame offsets:
#     150
#     62814
#     108208
#     148097
# 
# Disc length: 2479
# 
# Revision: 0
# Processed by: cddbd v1.5.2PL0 Copyright (c) Steve Scherf et al.
# Submitted via: fre:ac v1.0.17
# 
DISCID=3409ad04
DTITLE=Dead and Company - 2015.11.06 Washington DC
DYEAR=0
DGENRE=
TTITLE0=Dead and Company - 2015.11.06 Washington DC - 12 - The wheel
TTITLE1=Dead and Company - 2015.11.06 Washington DC - 13 - Looks Like rain
TTITLE2=Dead and Company - 2015.11.06 Washington DC - 14 - In the Midnight hour
TTITLE3=Dead and Company - 2015.11.06 Washington DC - 15 - touch Of grey
EXTD=
EXTT0=
EXTT1=
EXTT2=
EXTT3=
PLAYORDER=
